# xmcd
#
# Track frame offsets: 
#        150
#        16160
#        30454
#        51560
#        65865
#        82392
#        97047
#        111950
#        127983
#        143913
#
# Disc length: 2107 seconds
#
# Revision: 0
# Processed by: cddbd v1.5.2PL0 Copyright (c) Steve Scherf et al.
# Submitted via: ExactAudioCopy v1.0b4
#
DISCID=9208390a
DTITLE=Z Z  Hill - The Rhythm and The Blues (LP)
DYEAR=1984
DGENRE=Blues
TTITLE0=Someone Else Is Steppin' In
TTITLE1=What Am I Gonna tell Her
TTITLE2=Open House At My House
TTITLE3=Who You Been Giving It To
TTITLE4=That Fire Is Hot
TTITLE5=Wang Dang Doodle
TTITLE6=Outside Thang
TTITLE7=You' re Gonna Be A Woman
TTITLE8=Help Me, I' m In Need
TTITLE9=Get You Some Business
EXTD=
EXTT0=
EXTT1=
EXTT2=
EXTT3=
EXTT4=
EXTT5=
EXTT6=
EXTT7=
EXTT8=
EXTT9=
PLAYORDER=
